# xmcd
#
# Track frame offsets: 
#        150
#        11759
#        26069
#        39740
#        53007
#        64550
#        77870
#        92073
#        107284
#        122757
#        138010
#        150628
#        164120
#        178136
#        192736
#        208239
#        223090
#        236153
#        247654
#        263450
#        278144
#        290771
#        304387
#        317421
#        328930
#
# Disc length: 4563 seconds
#
# Revision: 0
# Processed by: cddbd v1.5.2PL0 Copyright (c) Steve Scherf et al.
# Submitted via: ExactAudioCopyFreeDBPlugin 1.0
#
DISCID=7211d119
DTITLE=Various Artist - Rural Blues the Essential Collection
DYEAR=2008
DGENRE=Blues
TTITLE0=Robert Johnson - Crossroads Blues
TTITLE1=Charley Patton - Mississippi Boweavil Blues
TTITLE2=Blind Lemon Jefferson - Match Box Blues
TTITLE3=Leadbelly - Good Morning Blues
TTITLE4=Blind Willie McTell - Statesboro' Blues
TTITLE5=Lonnie Johnson - Careless Love Blues
TTITLE6=Blind Boy Fuller - Homesick and Lonesome Blues
TTITLE7=Blind Willie Johnson - Dark Was The Night, Cold Was The Ground
TTITLE8=Henry Thomas - Bull Doze Blues
TTITLE9=Brownie McGhee - Sportin' Life
TTITLE10=Lightnin' Hopkins - So Long
TTITLE11=Blind Blake - Diddie Wa Diddie
TTITLE12=Furry Lewis - Judge Harsh Blues
TTITLE13=Rev Gary Davis - I Belong To The Band
TTITLE14=Big Joe Williams - Baby Please Don't Go
TTITLE15=Barbecue Bob - Motherless Child Blues
TTITLE16=Josh White - Track17Lazy Black Snake Blues
TTITLE17=Gus Cannon - Going To Germany
TTITLE18=Washboard Sam - I'm A Prowling Groundhog
TTITLE19=Big Bill Broonzy - I Can't Be Satisfied
TTITLE20=Mississippi John Hurt - Candy Man Blues
TTITLE21=Sonny Boy Williamson - I Can't Make You Satisfied
TTITLE22=Robert Wilkins - That's No Way To Get Along
TTITLE23=Roosevelt Graves - I'll Be Rested
TTITLE24=Son House - Walking Blues
EXTD=
EXTT0=
EXTT1=
EXTT2=
EXTT3=
EXTT4=
EXTT5=
EXTT6=
EXTT7=
EXTT8=
EXTT9=
EXTT10=
EXTT11=
EXTT12=
EXTT13=
EXTT14=
EXTT15=
EXTT16=
EXTT17=
EXTT18=
EXTT19=
EXTT20=
EXTT21=
EXTT22=
EXTT23=
EXTT24=
PLAYORDER=
